<svg width="604" height="616" viewBox="0 0 604 616" fill="none" xmlns="http://www.w3.org/2000/svg">
<path d="M271 263.5C271.9 259.3 278.6 255.6 282 253.9C295.7 247.2 318.2 248.2 329.5 259.1C333.6 263 334.7 268.7 327.4 264.9C321.8 262 315.5 260.3 309.1 260.3C303.4 260.3 297.3 260 291.6 260.4C286.3 260.8 281.1 262.4 276.3 264.9C273.8 266.3 270.1 267.6 271 263.5ZM193.8 556.4C189.4 556.4 185.8 560 185.8 564.4C185.8 568.8 189.4 572.4 193.8 572.4C198.2 572.4 201.8 568.8 201.8 564.4C201.8 560 198.2 556.4 193.8 556.4ZM181.7 548.9C179.5 548.9 177.6 550.7 177.6 553C177.6 555.2 179.4 557.1 181.7 557.1C183.9 557.1 185.8 555.3 185.8 553C185.8 550.7 184 548.9 181.7 548.9ZM410.2 556.4C405.8 556.4 402.2 560 402.2 564.4C402.2 568.8 405.8 572.4 410.2 572.4C414.6 572.4 418.2 568.8 418.2 564.4C418.2 560 414.6 556.4 410.2 556.4ZM422.3 548.9C420.1 548.9 418.2 550.7 418.2 553C418.2 555.2 420 557.1 422.3 557.1C424.5 557.1 426.4 555.3 426.4 553C426.3 550.7 424.5 548.9 422.3 548.9ZM599.5 418.5C579.1 472.7 532.7 482.7 533.6 511.3C534.5 539.9 508 614.1 440.8 615C373.6 615.9 374 617.6 354.9 593.3C337.1 570.6 318.9 562.7 302.1 562.4C285.3 562.6 267.1 570.6 249.3 593.3C230.2 617.6 230.6 615.9 163.4 615C96.2 614.1 69.7 539.9 70.6 511.3C71.5 482.7 25 472.7 4.7 418.5C-15.7 364.3 53.7 330.4 53.7 330.4L49.4 324.3V296.5C24.7 273.5 49.4 254 49.4 254C48.1 221.5 68.5 216.7 68.5 216.7C51.6 195 75.4 185.9 75.4 185.9L78 131.7C92.1 -8.2 281.5 -0.200002 302 0.999998C322.5 -0.300002 511.9 -8.2 526.2 131.7L528.8 185.9C528.8 185.9 552.7 195 535.7 216.7C535.7 216.7 556.1 221.5 554.8 254C554.8 254 579.5 273.5 554.8 296.5V324.3L550.5 330.4C550.5 330.5 619.9 364.3 599.5 418.5ZM523.9 234.9C523.9 234.9 528.8 320.2 528.8 322.4L539.5 317.5C539.5 317.5 543.1 262.8 537.9 247.2C532.7 231.6 523.9 234.9 523.9 234.9ZM97.2 167.7L99 189.4H505L507.8 155.7C510.4 125.3 500.7 94.8 480.2 72.2C478 69.8 475.8 67.5 473.4 65.2C459.6 52.1 443.2 42 425.6 34.8C401 24.6 374.5 19.8 348 17.9C330.9 16.7 313.7 17.1 296.6 17C278.7 16.9 260.8 17.1 243 19C218.7 21.6 194.5 27.1 172.2 37.3C122.2 60.2 92.6 112.8 97.2 167.7ZM443.9 272.6L460.5 271.3C479.7 260.2 480.7 221.5 480.7 221.5H469.3C475.8 235.5 443.9 272.6 443.9 272.6ZM134.7 221.6H123.3C123.3 221.6 124.3 260.3 143.5 271.4L160.1 272.7C160.1 272.6 128.2 235.5 134.7 221.6ZM83 369.5L129 439.4C129 439.4 149.8 456.3 216.6 396.9C221.7 392.4 226.8 388 231.9 383.6C241.9 375.1 252.2 366.8 262.8 359C267.2 355.8 271.7 352.6 276.3 349.6C277.1 349.1 278 348.5 278.8 348C280.6 346.8 282.4 345.6 284.3 344.4C286.1 343.2 288 342.1 289.9 341.1C291.8 340.1 293.8 339.2 295.8 338.5C296.8 338.2 297.9 337.9 298.9 337.6C301.9 336.9 304.9 337.7 307.8 338.7C310 339.4 312.2 340.3 314.3 341.5C318.8 343.9 323.1 346.6 327.3 349.4C335.9 355.1 344.2 361.2 352.3 367.6C364.3 377 375.9 386.9 387.3 397C454.1 456.4 474.9 439.5 474.9 439.5L520.9 369.6L510.5 300.2L506.6 302.8C506.6 302.8 505.7 334 504.9 335.8C504 337.5 487.1 370.9 485.4 369.2C483.7 367.5 447.7 335.4 447.7 335.4C447.7 335.4 413.3 333.3 379.8 291.1C378.7 289.7 379.4 287.5 381.1 287.1C381.8 286.9 382.5 287 383.1 287.4C391.7 292.8 458.1 333.6 476.3 320.7C495.8 306.8 507.1 275.6 507.1 275.6V217.9H495.8C495.8 217.9 500.1 269.1 468 283.4C435.9 297.7 369.5 251.7 333.5 224.8H270.3C234.3 251.7 167.9 297.7 135.8 283.4C103.7 269.1 108 217.9 108 217.9H96.7V275.6C96.7 275.6 108 306.8 127.5 320.7C145.7 333.7 212.1 292.9 220.7 287.4C221.3 287 222 286.9 222.7 287.1C224.5 287.6 225.2 289.7 224 291.1C190.5 333.3 156.1 335.4 156.1 335.4C156.1 335.4 120.1 367.5 118.4 369.2C116.7 370.9 99.7 337.5 98.9 335.8C98 334.1 97.2 302.8 97.2 302.8L93.3 300.2L83 369.5ZM64.4 317.5L75.1 322.4C75.1 320.1 80 234.9 80 234.9C80 234.9 71.2 231.6 66 247.3C60.9 262.9 64.4 317.5 64.4 317.5ZM83 471.5L114.9 448.1C114.9 448.1 71.3 385.3 71.3 384C71.3 382.7 68 341.7 68 341.7C68 341.7 19.8 354.4 20.2 402.9C20.5 451.4 63.5 473.2 64.5 472.5C65.4 471.8 83 471.5 83 471.5ZM214.8 562.6C214.8 548.9 193.5 524.9 173.6 524.9C153.7 524.9 142.5 540.2 150.7 557.4C156.5 569.8 166.8 584.7 186.7 584.7C206.6 584.7 214.8 576.2 214.8 562.6ZM430.4 524.8C410.5 524.8 389.2 548.9 389.2 562.5C389.2 576.2 397.5 584.6 417.3 584.6C437.1 584.6 447.4 569.6 453.3 557.3C461.5 540.1 450.2 524.8 430.4 524.8ZM475 460.2C475 460.2 406.9 444.1 376.9 418.5C347.5 393.4 319 385.4 301.9 384.7C284.9 385.4 256.3 393.4 226.9 418.5C197 444.1 128.8 460.2 128.8 460.2C44.2 499.2 125.3 578.6 125.3 578.6C118.4 563.4 124 540 124 540C161.7 471.4 253.7 545.2 253.7 545.2H259.3V489.9C259.3 487.9 261 486.2 263 486.2H274.3C276.3 486.2 278 484.5 278 482.5C278 480.5 279.7 478.8 281.7 478.8H285.4C289.5 478.8 292.8 475.5 292.8 471.4H310.8C310.8 475.5 314.1 478.8 318.2 478.8H321.9C323.9 478.8 325.6 480.5 325.6 482.5C325.6 484.5 327.3 486.2 329.3 486.2H340.6C342.6 486.2 344.3 487.9 344.3 489.9V545.2H349.9C349.9 545.2 441.9 471.4 479.6 540C479.6 540 485.2 563.4 478.3 578.6C478.5 578.6 559.6 499.2 475 460.2ZM583.8 402.8C584.1 354.3 536 341.6 536 341.6C536 341.6 532.7 382.6 532.7 383.9C532.7 385.2 489.1 448 489.1 448L521 471.4C521 471.4 538.6 471.7 539.5 472.4C540.5 473.1 583.5 451.3 583.8 402.8Z" fill="white"/>
</svg>
